Coordinates
version=1
nRows=17
nColumns=33
inDegrees=yes

Units are S.I. units (second, meters, Newtons, ...)
Angles are in degrees.

endheader
time	ground_thorax_rot_x	ground_thorax_rot_y	ground_thorax_rot_z	ground_thorax_tx	ground_thorax_ty	ground_thorax_tz	clav_prot_r	clav_elev_r	scapula_abduction_r	scapula_elevation_r	scapula_upward_rot_r	scapula_winging_r	shoulder_elv_r	plane_of_elev_r	axial_rot_r	elbow_flexion_r	pro_sup_r	wrist_flex_r	wrist_dev_r	clav_prot_l	clav_elev_l	scapula_abduction_l	scapula_elevation_l	scapula_upward_rot_l	scapula_winging_l	shoulder_elv_l	plane_of_elev_l	axial_rot_l	elbow_flexion_l	pro_sup_l	wrist_flex_l	wrist_dev_l
      1.36000000	      2.59422260	      4.92819148	     12.19347046	     -0.11338944	      1.03749120	      0.03497682	      5.75378707	     12.94952465	     21.17504827	      8.09579176	     23.99504192	    -11.62822540	      3.71242496	    -75.96431441	     49.64664191	     55.11705288	    -27.99777756	     70.00000021	    -24.99999983	     11.61355566	     -3.82052845	    -17.33728750	    -21.72988424	    -43.11574588	     -0.23035561	     60.12395291	    -37.39024462	     -4.51719689	     64.70810273	     20.64710130	      0.22951942	    -24.99999983
      1.37000000	      2.75156560	      5.39544807	     12.04040486	     -0.11336361	      1.03767602	      0.03539871	      5.32231823	     12.70743233	     20.39922395	      7.91664572	     23.96934686	    -11.37322842	      5.11706861	    -76.55936716	     49.14441518	     57.77563870	    -31.84649422	     69.10986899	    -24.99999983	     11.88042139	     -4.12494448	    -17.75104169	    -21.32527474	    -42.89847467	      0.03407297	     60.20115082	    -36.94845169	     -5.05837540	     64.00055341	     21.18922620	     -0.51180328	    -24.99999983
      1.38000000	      2.34719073	      5.65186077	     12.07354117	     -0.11338467	      1.03723767	      0.03551083	      4.87393843	     12.44061407	     19.66058257	      7.69276638	     24.01403049	    -11.13888834	      7.00419324	    -77.09363597	     48.71538568	     63.09076858	    -40.88873283	     59.24593723	    -24.99999983	     12.27037124	     -4.11791028	    -18.48773286	    -21.38196198	    -43.06040450	      0.33994628	     60.30139507	    -37.06565702	     -4.79194641	     64.48988887	     21.60048677	     -1.58064067	    -24.99999983
      1.39000000	      2.28223945	      6.11256569	     12.22459955	     -0.11399014	      1.03745383	      0.03631660	      3.81365932	     12.58477090	     17.46269794	      7.88796469	     23.92602225	    -10.47026526	     15.98582885	    -77.88925157	     48.80423610	     72.96462258	    -36.63596887	     12.49045272	    -24.99999983	     13.29955752	     -4.55197969	    -20.64862702	    -21.40477807	    -44.17764019	      1.20083039	     59.63449171	    -36.05172455	     -3.56488473	     64.08489400	     22.13200080	     -3.37564669	    -24.99999983
      1.40000000	      2.04155527	      6.09199345	     12.02241042	     -0.11301042	      1.03711246	      0.03469345	      3.73284723	     11.28055542	     17.31885331	      6.95812031	     23.37823866	    -10.31730935	     11.82900104	    -75.61791181	     56.90635763	     53.83739968	    -20.58763701	     70.00000021	    -24.99999983	     12.76866097	     -4.05347261	    -19.53906810	    -21.66393074	    -43.62207899	      0.72476763	     60.13101937	    -36.03003725	     -4.07773771	     64.13884547	     22.00340017	     -2.82840136	    -24.99999983
      1.41000000	      2.04875583	      6.09556323	     12.07094703	     -0.11299674	      1.03663754	      0.03459696	      3.72884865	     11.27224455	     17.33106357	      6.94448674	     23.39782519	    -10.32347764	     11.84301318	    -75.58656442	     56.89069423	     53.84727640	    -20.59016280	     70.00000021	    -24.99999983	     12.77027444	     -4.05971988	    -19.53770323	    -21.65142870	    -43.60821200	      0.72771441	     60.13880349	    -36.01272840	     -4.07240445	     64.14939662	     22.00169164	     -2.82985122	    -24.99999983
      1.42000000	      2.04563151	      6.09236370	     12.11939546	     -0.11303248	      1.03626266	      0.03447274	      3.72315637	     11.26443128	     17.34094157	      6.93104742	     23.41838612	    -10.32977809	     11.86345053	    -75.55319651	     56.86857470	     53.85928535	    -20.59459861	     70.00000021	    -24.99999983	     12.77092888	     -4.07142711	    -19.53511457	    -21.63500711	    -43.59631592	      0.73035763	     60.14320551	    -35.98901734	     -4.06910427	     64.16923690	     21.99898400	     -2.83154334	    -24.99999983
      1.43000000	      2.04586020	      6.08125804	     12.16052314	     -0.11306360	      1.03593975	      0.03436603	      3.71643773	     11.25643901	     17.34577143	      6.91859668	     23.43566118	    -10.33373818	     11.88867272	    -75.52232729	     56.84156109	     53.87220393	    -20.60099407	     70.00000021	    -24.99999983	     12.77155944	     -4.08360802	    -19.53321766	    -21.61836689	    -43.58503016	      0.73357668	     60.14775274	    -35.96225809	     -4.06492259	     64.20348407	     21.99424520	     -2.83408933	    -24.99999983
      1.44000000	      2.10188106	      6.11054988	     12.13645229	     -0.11320881	      1.03550841	      0.03440624	      3.90001831	     11.16344053	     17.13711981	      7.06976807	     22.74126656	    -10.17959142	     12.56827055	    -75.35032356	     56.28116786	     54.44967138	    -20.84553223	     70.00000021	    -24.99999983	     12.87258683	     -4.47354889	    -19.83656054	    -21.41785228	    -43.97861172	      0.84660303	     60.35695022	    -36.13045428	     -3.80726025	     64.74930868	     21.71147244	     -2.84795002	    -24.99999983
      1.45000000	      2.10276003	      6.09208216	     12.17810247	     -0.11323148	      1.03529195	      0.03433584	      3.89770041	     11.16016573	     17.14195658	      7.06378743	     22.75055743	    -10.18255671	     12.57556411	    -75.33599337	     56.27773232	     54.45645528	    -20.84615783	     70.00000021	    -24.99999983	     12.87840204	     -4.48077683	    -19.83926606	    -21.39989140	    -43.95427261	      0.85044778	     60.37153944	    -36.09092400	     -3.80250953	     64.78289864	     21.70576632	     -2.85021966	    -24.99999983
      1.46000000	      2.09783127	      6.07721782	     12.23220433	     -0.11335209	      1.03525021	      0.03426509	      3.89460169	     11.15719177	     17.14605654	      7.05891192	     22.76369473	    -10.18451919	     12.58955141	    -75.31802311	     56.27002329	     54.47179968	    -20.84853641	     70.00000021	    -24.99999983	     12.87684806	     -4.49283204	    -19.83509537	    -21.37134598	    -43.92029217	      0.86209573	     60.38689800	    -36.02409692	     -3.79100941	     64.86096514	     21.69370013	     -2.85554788	    -24.99999983
      1.47000000	      2.09734126	      6.06865014	     12.02350131	     -0.11323272	      1.03445930	      0.03401392	      3.85972876	     11.24035390	     17.08122493	      7.11759903	     22.79917431	    -10.17451696	     12.81206287	    -75.23345857	     56.20426454	     54.86877041	    -20.90989021	     70.00000021	    -24.99999983	     12.91173183	     -4.45201698	    -19.91414284	    -21.44698452	    -44.00411404	      0.87780853	     60.42992273	    -35.94811100	     -3.55597102	     65.68051688	     21.48310941	     -2.89876208	    -24.99999983
      1.48000000	      2.10663376	      6.15163707	     12.06850020	     -0.11317526	      1.03435234	      0.03389425	      3.86564988	     11.26306654	     17.03378413	      7.15692661	     22.73988154	    -10.15409631	     12.85969772	    -75.26892613	     56.21441479	     54.97662425	    -20.93098605	     70.00000021	    -24.99999983	     12.91393463	     -4.48399590	    -19.90712551	    -21.40094294	    -43.96929394	      0.88500141	     60.48308498	    -35.84376270	     -3.42147545	     65.90412391	     21.40227370	     -2.91147127	    -24.99999983
      1.49000000	      2.10311768	      6.10282375	     11.98018011	     -0.11318997	      1.03402058	      0.03384060	      3.80644290	     11.33474775	     16.93289157	      7.20384372	     22.78816707	    -10.13059471	     13.07430305	    -75.21061848	     56.12346178	     55.38707728	    -21.00094240	     70.00000021	    -24.99999983	     12.93446465	     -4.50166460	    -19.95914229	    -21.40217764	    -44.01440198	      0.90487467	     60.52791985	    -35.76525850	     -3.17427464	     66.50334162	     21.20660318	     -2.92947141	    -24.99999983
      1.50000000	      2.08515199	      6.08984851	     11.97255046	     -0.11323567	      1.03375970	      0.03394527	      3.75304579	     11.42299769	     16.76385818	      7.29581289	     22.74965032	    -10.07990501	     13.40142319	    -75.18706321	     56.05555896	     55.99275160	    -21.11062868	     70.00000021	    -24.99999983	     12.99849319	     -4.61788993	    -20.10804334	    -21.34218893	    -44.13391653	      0.96231573	     60.62903352	    -35.71887971	     -2.80792855	     66.98176884	     20.87985972	     -2.88310273	    -24.99999983
      1.51000000	      2.19779791	      6.33139735	     12.13190478	     -0.11391532	      1.03398083	      0.03409972	      3.83818729	     11.33646831	     16.38561256	      7.45187297	     22.07768994	     -9.87872948	     14.84776662	    -75.05203361	     56.64835550	     56.75429798	    -21.43644721	     70.00000021	    -24.99999983	     13.51680579	     -5.20288180	    -21.29189440	    -21.14194304	    -45.00000000	      1.42625843	     60.71861007	    -35.25913669	     -2.26176744	     67.35142822	     19.27161648	     -2.07798750	    -24.99999983
      1.52000000	      2.13482955	      6.28269674	     12.14327324	     -0.11382737	      1.03380771	      0.03409915	      3.70202143	     11.42902645	     16.22948456	      7.47826842	     22.24456973	     -9.85770585	     14.99211454	    -75.00276066	     56.60865781	     57.11568697	    -21.43126878	     70.00000021	    -24.99999983	     13.49091975	     -5.10086472	    -21.22687420	    -21.21216386	    -44.93855592	      1.39678397	     60.76935876	    -35.12119172	     -1.93828249	     67.86623137	     19.09711544	     -2.05754368	    -24.99999983
